<svg xmlns="http://www.w3.org/2000/svg" xmlns:xlink="http://www.w3.org/1999/xlink" version="1.1" x="0px" y="0px" viewBox="0 0 100 125" enable-background="new 0 0 100 100" xml:space="preserve"><path d="M77.3,26.4H22.7c-3.9,0-7,3.1-7,7v33.3c0,3.9,3.1,7,7,7h12.1v13.9l10.3-13.9h32.1c3.9,0,7-3.1,7-7V33.4  C84.3,29.5,81.1,26.4,77.3,26.4z M70.3,61.3H30.1c-1,0-1.8-0.8-1.8-1.8s0.8-1.8,1.8-1.8h40.2c1,0,1.8,0.8,1.8,1.8  S71.3,61.3,70.3,61.3z M70.3,51.3H30.1c-1,0-1.8-0.8-1.8-1.8s0.8-1.8,1.8-1.8h40.2c1,0,1.8,0.8,1.8,1.8S71.3,51.3,70.3,51.3z   M70.3,41.3H30.1c-1,0-1.8-0.8-1.8-1.8s0.8-1.8,1.8-1.8h40.2c1,0,1.8,0.8,1.8,1.8S71.3,41.3,70.3,41.3z"/><text x="0" y="115" fill="#000000" font-size="5px" font-weight="bold" font-family="'Helvetica Neue', Helvetica, Arial-Unicode, Arial, Sans-serif">Created by Nimal Raj</text><text x="0" y="120" fill="#000000" font-size="5px" font-weight="bold" font-family="'Helvetica Neue', Helvetica, Arial-Unicode, Arial, Sans-serif">from the Noun Project</text></svg>